  0
SECTION
  2
HEADER
  9
$ACADVER
  1
AC1009
  9
$EXTMIN
 10
0.0
 20
0.0
 30
0.0
  9
$EXTMAX
 10
1000.0
 20
1000.0
 30
0.0
  9
$FILLMODE
 70
 0
  9
$SPLFRAME
 70
 1
  0
ENDSEC
  0
SECTION
  2
TABLES
  0
TABLE
  2
LAYER
 70
1
  0
LAYER
  2
0
 70
     0
 62
     7
  6
CONTINUOUS
  0
ENDTAB
  0
ENDSEC
  0
SECTION
  2
ENTITIES
  0
LINE
  8
0
 62
     0
 10
0.0950846
 20
5.14696
 30
0.0
 11
0.0950846
 21
25.1478
 31
0.0
  0
LINE
  8
0
 62
     0
 10
0.0950846
 20
25.1478
 30
0.0
 11
5.0946
 21
30.1473
 31
0.0
  0
LINE
  8
0
 62
     0
 10
5.0946
 20
30.1473
 30
0.0
 11
5.0946
 21
70.4465
 31
0.0
  0
LINE
  8
0
 62
     0
 10
5.0946
 20
70.4465
 30
0.0
 11
0.0950846
 21
75.4475
 31
0.0
  0
LINE
  8
0
 62
     0
 10
0.0950846
 20
75.4475
 30
0.0
 11
0.0950846
 21
95.4472
 31
0.0
  0
LINE
  8
0
 62
     0
 10
0.0950846
 20
95.4472
 30
0.0
 11
5.0946
 21
100.446
 31
0.0
  0
LINE
  8
0
 62
     0
 10
5.0946
 20
100.446
 30
0.0
 11
314.895
 21
100.446
 31
0.0
  0
LINE
  8
0
 62
     0
 10
314.895
 20
100.446
 30
0.0
 11
319.895
 21
95.4472
 31
0.0
  0
LINE
  8
0
 62
     0
 10
319.895
 20
95.4472
 30
0.0
 11
319.895
 21
75.4475
 31
0.0
  0
LINE
  8
0
 62
     0
 10
319.895
 20
75.4475
 30
0.0
 11
314.895
 21
70.4465
 31
0.0
  0
LINE
  8
0
 62
     0
 10
314.895
 20
70.4465
 30
0.0
 11
314.895
 21
30.1473
 31
0.0
  0
LINE
  8
0
 62
     0
 10
314.895
 20
30.1473
 30
0.0
 11
319.895
 21
25.1478
 31
0.0
  0
LINE
  8
0
 62
     0
 10
319.895
 20
25.1478
 30
0.0
 11
319.895
 21
5.14696
 31
0.0
  0
LINE
  8
0
 62
     0
 10
319.895
 20
5.14696
 30
0.0
 11
314.895
 21
0.14745
 31
0.0
  0
LINE
  8
0
 62
     0
 10
314.895
 20
0.14745
 30
0.0
 11
5.0946
 21
0.14745
 31
0.0
  0
LINE
  8
0
 62
     0
 10
5.0946
 20
0.14745
 30
0.0
 11
0.0950846
 21
5.14696
 31
0.0
  0
LINE
  8
0
 62
     0
 10
131.061
 20
19.1727
 30
0.0
 11
131.061
 21
14.4721
 31
0.0
  0
LINE
  8
0
 62
     0
 10
131.061
 20
14.4721
 30
0.0
 11
91.4368
 21
14.4721
 31
0.0
  0
LINE
  8
0
 62
     0
 10
91.4368
 20
14.4721
 30
0.0
 11
91.4368
 21
17.7037
 31
0.0
  0
LINE
  8
0
 62
     0
 10
91.4368
 20
17.7037
 30
0.0
 11
84.6875
 21
17.7037
 31
0.0
  0
LINE
  8
0
 62
     0
 10
84.6875
 20
17.7037
 30
0.0
 11
84.6875
 21
14.4721
 31
0.0
  0
LINE
  8
0
 62
     0
 10
84.6875
 20
14.4721
 30
0.0
 11
83.862
 21
14.4721
 31
0.0
  0
LINE
  8
0
 62
     0
 10
83.862
 20
14.4721
 30
0.0
 11
83.862
 21
11.6733
 31
0.0
  0
LINE
  8
0
 62
     0
 10
83.862
 20
11.6733
 30
0.0
 11
84.6875
 21
11.6733
 31
0.0
  0
LINE
  8
0
 62
     0
 10
84.6875
 20
11.6733
 30
0.0
 11
84.6875
 21
5.40329
 31
0.0
  0
LINE
  8
0
 62
     0
 10
84.6875
 20
5.40329
 30
0.0
 11
86.4126
 21
5.40329
 31
0.0
  0
LINE
  8
0
 62
     0
 10
86.4126
 20
5.40329
 30
0.0
 11
86.4126
 21
4.20303
 31
0.0
  0
LINE
  8
0
 62
     0
 10
86.4126
 20
4.20303
 30
0.0
 11
89.7132
 21
4.20303
 31
0.0
  0
LINE
  8
0
 62
     0
 10
89.7132
 20
4.20303
 30
0.0
 11
89.7132
 21
5.40329
 31
0.0
  0
LINE
  8
0
 62
     0
 10
89.7132
 20
5.40329
 30
0.0
 11
91.4368
 21
5.40329
 31
0.0
  0
LINE
  8
0
 62
     0
 10
91.4368
 20
5.40329
 30
0.0
 11
91.4368
 21
9.87365
 31
0.0
  0
LINE
  8
0
 62
     0
 10
91.4368
 20
9.87365
 30
0.0
 11
131.061
 21
9.87365
 31
0.0
  0
LINE
  8
0
 62
     0
 10
131.061
 20
9.87365
 30
0.0
 11
131.061
 21
5.17317
 31
0.0
  0
LINE
  8
0
 62
     0
 10
131.061
 20
5.17317
 30
0.0
 11
145.062
 21
5.17317
 31
0.0
  0
LINE
  8
0
 62
     0
 10
145.062
 20
5.17317
 30
0.0
 11
145.062
 21
9.87365
 31
0.0
  0
LINE
  8
0
 62
     0
 10
145.062
 20
9.87365
 30
0.0
 11
184.687
 21
9.87365
 31
0.0
  0
LINE
  8
0
 62
     0
 10
184.687
 20
9.87365
 30
0.0
 11
184.687
 21
5.40329
 31
0.0
  0
LINE
  8
0
 62
     0
 10
184.687
 20
5.40329
 30
0.0
 11
186.413
 21
5.40329
 31
0.0
  0
LINE
  8
0
 62
     0
 10
186.413
 20
5.40329
 30
0.0
 11
186.413
 21
4.20303
 31
0.0
  0
LINE
  8
0
 62
     0
 10
186.413
 20
4.20303
 30
0.0
 11
189.713
 21
4.20303
 31
0.0
  0
LINE
  8
0
 62
     0
 10
189.713
 20
4.20303
 30
0.0
 11
189.713
 21
5.40329
 31
0.0
  0
LINE
  8
0
 62
     0
 10
189.713
 20
5.40329
 30
0.0
 11
191.437
 21
5.40329
 31
0.0
  0
LINE
  8
0
 62
     0
 10
191.437
 20
5.40329
 30
0.0
 11
191.437
 21
11.6733
 31
0.0
  0
LINE
  8
0
 62
     0
 10
191.437
 20
11.6733
 30
0.0
 11
192.262
 21
11.6733
 31
0.0
  0
LINE
  8
0
 62
     0
 10
192.262
 20
11.6733
 30
0.0
 11
192.262
 21
14.4721
 31
0.0
  0
LINE
  8
0
 62
     0
 10
192.262
 20
14.4721
 30
0.0
 11
191.437
 21
14.4721
 31
0.0
  0
LINE
  8
0
 62
     0
 10
191.437
 20
14.4721
 30
0.0
 11
191.437
 21
17.7037
 31
0.0
  0
LINE
  8
0
 62
     0
 10
191.437
 20
17.7037
 30
0.0
 11
184.687
 21
17.7037
 31
0.0
  0
LINE
  8
0
 62
     0
 10
184.687
 20
17.7037
 30
0.0
 11
184.687
 21
14.4721
 31
0.0
  0
LINE
  8
0
 62
     0
 10
184.687
 20
14.4721
 30
0.0
 11
145.062
 21
14.4721
 31
0.0
  0
LINE
  8
0
 62
     0
 10
145.062
 20
14.4721
 30
0.0
 11
145.062
 21
19.1727
 31
0.0
  0
LINE
  8
0
 62
     0
 10
145.062
 20
19.1727
 30
0.0
 11
131.061
 21
19.1727
 31
0.0
  0
LINE
  8
0
 62
     0
 10
295.37
 20
19.1727
 30
0.0
 11
309.37
 21
19.1727
 31
0.0
  0
LINE
  8
0
 62
     0
 10
309.37
 20
19.1727
 30
0.0
 11
309.37
 21
5.17317
 31
0.0
  0
LINE
  8
0
 62
     0
 10
309.37
 20
5.17317
 30
0.0
 11
295.37
 21
5.17317
 31
0.0
  0
LINE
  8
0
 62
     0
 10
295.37
 20
5.17317
 30
0.0
 11
295.37
 21
19.1727
 31
0.0
  0
LINE
  8
0
 62
     0
 10
276.32
 20
19.1727
 30
0.0
 11
290.32
 21
19.1727
 31
0.0
  0
LINE
  8
0
 62
     0
 10
290.32
 20
19.1727
 30
0.0
 11
290.32
 21
5.17317
 31
0.0
  0
LINE
  8
0
 62
     0
 10
290.32
 20
5.17317
 30
0.0
 11
276.32
 21
5.17317
 31
0.0
  0
LINE
  8
0
 62
     0
 10
276.32
 20
5.17317
 30
0.0
 11
276.32
 21
19.1727
 31
0.0
  0
LINE
  8
0
 62
     0
 10
257.27
 20
19.1727
 30
0.0
 11
271.27
 21
19.1727
 31
0.0
  0
LINE
  8
0
 62
     0
 10
271.27
 20
19.1727
 30
0.0
 11
271.27
 21
5.17317
 31
0.0
  0
LINE
  8
0
 62
     0
 10
271.27
 20
5.17317
 30
0.0
 11
257.27
 21
5.17317
 31
0.0
  0
LINE
  8
0
 62
     0
 10
257.27
 20
5.17317
 30
0.0
 11
257.27
 21
19.1727
 31
0.0
  0
LINE
  8
0
 62
     0
 10
238.22
 20
19.1727
 30
0.0
 11
252.22
 21
19.1727
 31
0.0
  0
LINE
  8
0
 62
     0
 10
252.22
 20
19.1727
 30
0.0
 11
252.22
 21
5.17317
 31
0.0
  0
LINE
  8
0
 62
     0
 10
252.22
 20
5.17317
 30
0.0
 11
238.22
 21
5.17317
 31
0.0
  0
LINE
  8
0
 62
     0
 10
238.22
 20
5.17317
 30
0.0
 11
238.22
 21
19.1727
 31
0.0
  0
LINE
  8
0
 62
     0
 10
219.17
 20
19.1727
 30
0.0
 11
233.17
 21
19.1727
 31
0.0
  0
LINE
  8
0
 62
     0
 10
233.17
 20
19.1727
 30
0.0
 11
233.17
 21
5.17317
 31
0.0
  0
LINE
  8
0
 62
     0
 10
233.17
 20
5.17317
 30
0.0
 11
219.17
 21
5.17317
 31
0.0
  0
LINE
  8
0
 62
     0
 10
219.17
 20
5.17317
 30
0.0
 11
219.17
 21
19.1727
 31
0.0
  0
LINE
  8
0
 62
     0
 10
200.12
 20
19.1727
 30
0.0
 11
214.12
 21
19.1727
 31
0.0
  0
LINE
  8
0
 62
     0
 10
214.12
 20
19.1727
 30
0.0
 11
214.12
 21
5.17317
 31
0.0
  0
LINE
  8
0
 62
     0
 10
214.12
 20
5.17317
 30
0.0
 11
200.12
 21
5.17317
 31
0.0
  0
LINE
  8
0
 62
     0
 10
200.12
 20
5.17317
 30
0.0
 11
200.12
 21
19.1727
 31
0.0
  0
LINE
  8
0
 62
     0
 10
59.6251
 20
19.1727
 30
0.0
 11
73.6258
 21
19.1727
 31
0.0
  0
LINE
  8
0
 62
     0
 10
73.6258
 20
19.1727
 30
0.0
 11
73.6258
 21
5.17317
 31
0.0
  0
LINE
  8
0
 62
     0
 10
73.6258
 20
5.17317
 30
0.0
 11
59.6251
 21
5.17317
 31
0.0
  0
LINE
  8
0
 62
     0
 10
59.6251
 20
5.17317
 30
0.0
 11
59.6251
 21
19.1727
 31
0.0
  0
LINE
  8
0
 62
     0
 10
35.8126
 20
19.1727
 30
0.0
 11
49.8119
 21
19.1727
 31
0.0
  0
LINE
  8
0
 62
     0
 10
49.8119
 20
19.1727
 30
0.0
 11
49.8119
 21
5.17317
 31
0.0
  0
LINE
  8
0
 62
     0
 10
49.8119
 20
5.17317
 30
0.0
 11
35.8126
 21
5.17317
 31
0.0
  0
LINE
  8
0
 62
     0
 10
35.8126
 20
5.17317
 30
0.0
 11
35.8126
 21
19.1727
 31
0.0
  0
LINE
  8
0
 62
     0
 10
11.9999
 20
19.1727
 30
0.0
 11
26.0008
 21
19.1727
 31
0.0
  0
LINE
  8
0
 62
     0
 10
26.0008
 20
19.1727
 30
0.0
 11
26.0008
 21
5.17317
 31
0.0
  0
LINE
  8
0
 62
     0
 10
26.0008
 20
5.17317
 30
0.0
 11
11.9999
 21
5.17317
 31
0.0
  0
LINE
  8
0
 62
     0
 10
11.9999
 20
5.17317
 30
0.0
 11
11.9999
 21
19.1727
 31
0.0
  0
LINE
  8
0
 62
     0
 10
21.5249
 20
38.2228
 30
0.0
 11
21.5249
 21
33.5221
 31
0.0
  0
LINE
  8
0
 62
     0
 10
21.5249
 20
33.5221
 30
0.0
 11
20.0008
 21
33.5221
 31
0.0
  0
LINE
  8
0
 62
     0
 10
20.0008
 20
33.5221
 30
0.0
 11
20.0008
 21
36.7524
 31
0.0
  0
LINE
  8
0
 62
     0
 10
20.0008
 20
36.7524
 30
0.0
 11
13.2498
 21
36.7524
 31
0.0
  0
LINE
  8
0
 62
     0
 10
13.2498
 20
36.7524
 30
0.0
 11
13.2498
 21
33.5221
 31
0.0
  0
LINE
  8
0
 62
     0
 10
13.2498
 20
33.5221
 30
0.0
 11
12.4258
 21
33.5221
 31
0.0
  0
LINE
  8
0
 62
     0
 10
12.4258
 20
33.5221
 30
0.0
 11
12.4258
 21
30.722
 31
0.0
  0
LINE
  8
0
 62
     0
 10
12.4258
 20
30.722
 30
0.0
 11
13.2498
 21
30.722
 31
0.0
  0
LINE
  8
0
 62
     0
 10
13.2498
 20
30.722
 30
0.0
 11
13.2498
 21
24.4533
 31
0.0
  0
LINE
  8
0
 62
     0
 10
13.2498
 20
24.4533
 30
0.0
 11
14.9751
 21
24.4533
 31
0.0
  0
LINE
  8
0
 62
     0
 10
14.9751
 20
24.4533
 30
0.0
 11
14.9751
 21
23.2517
 31
0.0
  0
LINE
  8
0
 62
     0
 10
14.9751
 20
23.2517
 30
0.0
 11
18.2755
 21
23.2517
 31
0.0
  0
LINE
  8
0
 62
     0
 10
18.2755
 20
23.2517
 30
0.0
 11
18.2755
 21
24.4533
 31
0.0
  0
LINE
  8
0
 62
     0
 10
18.2755
 20
24.4533
 30
0.0
 11
20.0008
 21
24.4533
 31
0.0
  0
LINE
  8
0
 62
     0
 10
20.0008
 20
24.4533
 30
0.0
 11
20.0008
 21
28.9236
 31
0.0
  0
LINE
  8
0
 62
     0
 10
20.0008
 20
28.9236
 30
0.0
 11
21.5249
 21
28.9236
 31
0.0
  0
LINE
  8
0
 62
     0
 10
21.5249
 20
28.9236
 30
0.0
 11
21.5249
 21
24.2218
 31
0.0
  0
LINE
  8
0
 62
     0
 10
21.5249
 20
24.2218
 30
0.0
 11
35.5258
 21
24.2218
 31
0.0
  0
LINE
  8
0
 62
     0
 10
35.5258
 20
24.2218
 30
0.0
 11
35.5258
 21
28.9236
 31
0.0
  0
LINE
  8
0
 62
     0
 10
35.5258
 20
28.9236
 30
0.0
 11
37.0498
 21
28.9236
 31
0.0
  0
LINE
  8
0
 62
     0
 10
37.0498
 20
28.9236
 30
0.0
 11
37.0498
 21
24.4533
 31
0.0
  0
LINE
  8
0
 62
     0
 10
37.0498
 20
24.4533
 30
0.0
 11
38.7752
 21
24.4533
 31
0.0
  0
LINE
  8
0
 62
     0
 10
38.7752
 20
24.4533
 30
0.0
 11
38.7752
 21
23.2517
 31
0.0
  0
LINE
  8
0
 62
     0
 10
38.7752
 20
23.2517
 30
0.0
 11
42.0758
 21
23.2517
 31
0.0
  0
LINE
  8
0
 62
     0
 10
42.0758
 20
23.2517
 30
0.0
 11
42.0758
 21
24.4533
 31
0.0
  0
LINE
  8
0
 62
     0
 10
42.0758
 20
24.4533
 30
0.0
 11
43.8009
 21
24.4533
 31
0.0
  0
LINE
  8
0
 62
     0
 10
43.8009
 20
24.4533
 30
0.0
 11
43.8009
 21
30.722
 31
0.0
  0
LINE
  8
0
 62
     0
 10
43.8009
 20
30.722
 30
0.0
 11
44.625
 21
30.722
 31
0.0
  0
LINE
  8
0
 62
     0
 10
44.625
 20
30.722
 30
0.0
 11
44.625
 21
33.5221
 31
0.0
  0
LINE
  8
0
 62
     0
 10
44.625
 20
33.5221
 30
0.0
 11
43.8009
 21
33.5221
 31
0.0
  0
LINE
  8
0
 62
     0
 10
43.8009
 20
33.5221
 30
0.0
 11
43.8009
 21
36.7524
 31
0.0
  0
LINE
  8
0
 62
     0
 10
43.8009
 20
36.7524
 30
0.0
 11
37.0498
 21
36.7524
 31
0.0
  0
LINE
  8
0
 62
     0
 10
37.0498
 20
36.7524
 30
0.0
 11
37.0498
 21
33.5221
 31
0.0
  0
LINE
  8
0
 62
     0
 10
37.0498
 20
33.5221
 30
0.0
 11
35.5258
 21
33.5221
 31
0.0
  0
LINE
  8
0
 62
     0
 10
35.5258
 20
33.5221
 30
0.0
 11
35.5258
 21
38.2228
 31
0.0
  0
LINE
  8
0
 62
     0
 10
35.5258
 20
38.2228
 30
0.0
 11
21.5249
 21
38.2228
 31
0.0
  0
LINE
  8
0
 62
     0
 10
295.37
 20
38.2228
 30
0.0
 11
309.37
 21
38.2228
 31
0.0
  0
LINE
  8
0
 62
     0
 10
309.37
 20
38.2228
 30
0.0
 11
309.37
 21
24.2218
 31
0.0
  0
LINE
  8
0
 62
     0
 10
309.37
 20
24.2218
 30
0.0
 11
295.37
 21
24.2218
 31
0.0
  0
LINE
  8
0
 62
     0
 10
295.37
 20
24.2218
 30
0.0
 11
295.37
 21
38.2228
 31
0.0
  0
LINE
  8
0
 62
     0
 10
276.32
 20
38.2228
 30
0.0
 11
290.32
 21
38.2228
 31
0.0
  0
LINE
  8
0
 62
     0
 10
290.32
 20
38.2228
 30
0.0
 11
290.32
 21
24.2218
 31
0.0
  0
LINE
  8
0
 62
     0
 10
290.32
 20
24.2218
 30
0.0
 11
276.32
 21
24.2218
 31
0.0
  0
LINE
  8
0
 62
     0
 10
276.32
 20
24.2218
 30
0.0
 11
276.32
 21
38.2228
 31
0.0
  0
LINE
  8
0
 62
     0
 10
250.125
 20
38.2228
 30
0.0
 11
264.126
 21
38.2228
 31
0.0
  0
LINE
  8
0
 62
     0
 10
264.126
 20
38.2228
 30
0.0
 11
264.126
 21
24.2218
 31
0.0
  0
LINE
  8
0
 62
     0
 10
264.126
 20
24.2218
 30
0.0
 11
250.125
 21
24.2218
 31
0.0
  0
LINE
  8
0
 62
     0
 10
250.125
 20
24.2218
 30
0.0
 11
250.125
 21
38.2228
 31
0.0
  0
LINE
  8
0
 62
     0
 10
223.931
 20
38.2228
 30
0.0
 11
237.932
 21
38.2228
 31
0.0
  0
LINE
  8
0
 62
     0
 10
237.932
 20
38.2228
 30
0.0
 11
237.932
 21
24.2218
 31
0.0
  0
LINE
  8
0
 62
     0
 10
237.932
 20
24.2218
 30
0.0
 11
223.931
 21
24.2218
 31
0.0
  0
LINE
  8
0
 62
     0
 10
223.931
 20
24.2218
 30
0.0
 11
223.931
 21
38.2228
 31
0.0
  0
LINE
  8
0
 62
     0
 10
204.881
 20
38.2228
 30
0.0
 11
218.882
 21
38.2228
 31
0.0
  0
LINE
  8
0
 62
     0
 10
218.882
 20
38.2228
 30
0.0
 11
218.882
 21
24.2218
 31
0.0
  0
LINE
  8
0
 62
     0
 10
218.882
 20
24.2218
 30
0.0
 11
204.881
 21
24.2218
 31
0.0
  0
LINE
  8
0
 62
     0
 10
204.881
 20
24.2218
 30
0.0
 11
204.881
 21
38.2228
 31
0.0
  0
LINE
  8
0
 62
     0
 10
185.831
 20
38.2228
 30
0.0
 11
199.832
 21
38.2228
 31
0.0
  0
LINE
  8
0
 62
     0
 10
199.832
 20
38.2228
 30
0.0
 11
199.832
 21
24.2218
 31
0.0
  0
LINE
  8
0
 62
     0
 10
199.832
 20
24.2218
 30
0.0
 11
185.831
 21
24.2218
 31
0.0
  0
LINE
  8
0
 62
     0
 10
185.831
 20
24.2218
 30
0.0
 11
185.831
 21
38.2228
 31
0.0
  0
LINE
  8
0
 62
     0
 10
166.781
 20
38.2228
 30
0.0
 11
180.782
 21
38.2228
 31
0.0
  0
LINE
  8
0
 62
     0
 10
180.782
 20
38.2228
 30
0.0
 11
180.782
 21
24.2218
 31
0.0
  0
LINE
  8
0
 62
     0
 10
180.782
 20
24.2218
 30
0.0
 11
166.781
 21
24.2218
 31
0.0
  0
LINE
  8
0
 62
     0
 10
166.781
 20
24.2218
 30
0.0
 11
166.781
 21
38.2228
 31
0.0
  0
LINE
  8
0
 62
     0
 10
147.731
 20
38.2228
 30
0.0
 11
161.732
 21
38.2228
 31
0.0
  0
LINE
  8
0
 62
     0
 10
161.732
 20
38.2228
 30
0.0
 11
161.732
 21
24.2218
 31
0.0
  0
LINE
  8
0
 62
     0
 10
161.732
 20
24.2218
 30
0.0
 11
147.731
 21
24.2218
 31
0.0
  0
LINE
  8
0
 62
     0
 10
147.731
 20
24.2218
 30
0.0
 11
147.731
 21
38.2228
 31
0.0
  0
LINE
  8
0
 62
     0
 10
128.68
 20
38.2228
 30
0.0
 11
142.682
 21
38.2228
 31
0.0
  0
LINE
  8
0
 62
     0
 10
142.682
 20
38.2228
 30
0.0
 11
142.682
 21
24.2218
 31
0.0
  0
LINE
  8
0
 62
     0
 10
142.682
 20
24.2218
 30
0.0
 11
128.68
 21
24.2218
 31
0.0
  0
LINE
  8
0
 62
     0
 10
128.68
 20
24.2218
 30
0.0
 11
128.68
 21
38.2228
 31
0.0
  0
LINE
  8
0
 62
     0
 10
109.631
 20
38.2228
 30
0.0
 11
123.632
 21
38.2228
 31
0.0
  0
LINE
  8
0
 62
     0
 10
123.632
 20
38.2228
 30
0.0
 11
123.632
 21
24.2218
 31
0.0
  0
LINE
  8
0
 62
     0
 10
123.632
 20
24.2218
 30
0.0
 11
109.631
 21
24.2218
 31
0.0
  0
LINE
  8
0
 62
     0
 10
109.631
 20
24.2218
 30
0.0
 11
109.631
 21
38.2228
 31
0.0
  0
LINE
  8
0
 62
     0
 10
90.5813
 20
38.2228
 30
0.0
 11
104.582
 21
38.2228
 31
0.0
  0
LINE
  8
0
 62
     0
 10
104.582
 20
38.2228
 30
0.0
 11
104.582
 21
24.2218
 31
0.0
  0
LINE
  8
0
 62
     0
 10
104.582
 20
24.2218
 30
0.0
 11
90.5813
 21
24.2218
 31
0.0
  0
LINE
  8
0
 62
     0
 10
90.5813
 20
24.2218
 30
0.0
 11
90.5813
 21
38.2228
 31
0.0
  0
LINE
  8
0
 62
     0
 10
71.5313
 20
38.2228
 30
0.0
 11
85.532
 21
38.2228
 31
0.0
  0
LINE
  8
0
 62
     0
 10
85.532
 20
38.2228
 30
0.0
 11
85.532
 21
24.2218
 31
0.0
  0
LINE
  8
0
 62
     0
 10
85.532
 20
24.2218
 30
0.0
 11
71.5313
 21
24.2218
 31
0.0
  0
LINE
  8
0
 62
     0
 10
71.5313
 20
24.2218
 30
0.0
 11
71.5313
 21
38.2228
 31
0.0
  0
LINE
  8
0
 62
     0
 10
52.4813
 20
38.2228
 30
0.0
 11
66.482
 21
38.2228
 31
0.0
  0
LINE
  8
0
 62
     0
 10
66.482
 20
38.2228
 30
0.0
 11
66.482
 21
24.2218
 31
0.0
  0
LINE
  8
0
 62
     0
 10
66.482
 20
24.2218
 30
0.0
 11
52.4813
 21
24.2218
 31
0.0
  0
LINE
  8
0
 62
     0
 10
52.4813
 20
24.2218
 30
0.0
 11
52.4813
 21
38.2228
 31
0.0
  0
LINE
  8
0
 62
     0
 10
264.413
 20
57.2728
 30
0.0
 11
264.413
 21
52.572
 31
0.0
  0
LINE
  8
0
 62
     0
 10
264.413
 20
52.572
 30
0.0
 11
262.887
 21
52.572
 31
0.0
  0
LINE
  8
0
 62
     0
 10
262.887
 20
52.572
 30
0.0
 11
262.887
 21
55.8038
 31
0.0
  0
LINE
  8
0
 62
     0
 10
262.887
 20
55.8038
 30
0.0
 11
256.137
 21
55.8038
 31
0.0
  0
LINE
  8
0
 62
     0
 10
256.137
 20
55.8038
 30
0.0
 11
256.137
 21
52.572
 31
0.0
  0
LINE
  8
0
 62
     0
 10
256.137
 20
52.572
 30
0.0
 11
255.312
 21
52.572
 31
0.0
  0
LINE
  8
0
 62
     0
 10
255.312
 20
52.572
 30
0.0
 11
255.312
 21
49.772
 31
0.0
  0
LINE
  8
0
 62
     0
 10
255.312
 20
49.772
 30
0.0
 11
256.137
 21
49.772
 31
0.0
  0
LINE
  8
0
 62
     0
 10
256.137
 20
49.772
 30
0.0
 11
256.137
 21
43.5031
 31
0.0
  0
LINE
  8
0
 62
     0
 10
256.137
 20
43.5031
 30
0.0
 11
257.861
 21
43.5031
 31
0.0
  0
LINE
  8
0
 62
     0
 10
257.861
 20
43.5031
 30
0.0
 11
257.861
 21
42.303
 31
0.0
  0
LINE
  8
0
 62
     0
 10
257.861
 20
42.303
 30
0.0
 11
261.162
 21
42.303
 31
0.0
  0
LINE
  8
0
 62
     0
 10
261.162
 20
42.303
 30
0.0
 11
261.162
 21
43.5031
 31
0.0
  0
LINE
  8
0
 62
     0
 10
261.162
 20
43.5031
 30
0.0
 11
262.887
 21
43.5031
 31
0.0
  0
LINE
  8
0
 62
     0
 10
262.887
 20
43.5031
 30
0.0
 11
262.887
 21
47.9735
 31
0.0
  0
LINE
  8
0
 62
     0
 10
262.887
 20
47.9735
 30
0.0
 11
264.413
 21
47.9735
 31
0.0
  0
LINE
  8
0
 62
     0
 10
264.413
 20
47.9735
 30
0.0
 11
264.413
 21
43.2717
 31
0.0
  0
LINE
  8
0
 62
     0
 10
264.413
 20
43.2717
 30
0.0
 11
278.412
 21
43.2717
 31
0.0
  0
LINE
  8
0
 62
     0
 10
278.412
 20
43.2717
 30
0.0
 11
278.412
 21
47.9735
 31
0.0
  0
LINE
  8
0
 62
     0
 10
278.412
 20
47.9735
 30
0.0
 11
279.937
 21
47.9735
 31
0.0
  0
LINE
  8
0
 62
     0
 10
279.937
 20
47.9735
 30
0.0
 11
279.937
 21
43.5031
 31
0.0
  0
LINE
  8
0
 62
     0
 10
279.937
 20
43.5031
 30
0.0
 11
281.663
 21
43.5031
 31
0.0
  0
LINE
  8
0
 62
     0
 10
281.663
 20
43.5031
 30
0.0
 11
281.663
 21
42.303
 31
0.0
  0
LINE
  8
0
 62
     0
 10
281.663
 20
42.303
 30
0.0
 11
284.963
 21
42.303
 31
0.0
  0
LINE
  8
0
 62
     0
 10
284.963
 20
42.303
 30
0.0
 11
284.963
 21
43.5031
 31
0.0
  0
LINE
  8
0
 62
     0
 10
284.963
 20
43.5031
 30
0.0
 11
286.687
 21
43.5031
 31
0.0
  0
LINE
  8
0
 62
     0
 10
286.687
 20
43.5031
 30
0.0
 11
286.687
 21
49.772
 31
0.0
  0
LINE
  8
0
 62
     0
 10
286.687
 20
49.772
 30
0.0
 11
287.512
 21
49.772
 31
0.0
  0
LINE
  8
0
 62
     0
 10
287.512
 20
49.772
 30
0.0
 11
287.512
 21
52.572
 31
0.0
  0
LINE
  8
0
 62
     0
 10
287.512
 20
52.572
 30
0.0
 11
286.687
 21
52.572
 31
0.0
  0
LINE
  8
0
 62
     0
 10
286.687
 20
52.572
 30
0.0
 11
286.687
 21
55.8038
 31
0.0
  0
LINE
  8
0
 62
     0
 10
286.687
 20
55.8038
 30
0.0
 11
279.937
 21
55.8038
 31
0.0
  0
LINE
  8
0
 62
     0
 10
279.937
 20
55.8038
 30
0.0
 11
279.937
 21
52.572
 31
0.0
  0
LINE
  8
0
 62
     0
 10
279.937
 20
52.572
 30
0.0
 11
278.412
 21
52.572
 31
0.0
  0
LINE
  8
0
 62
     0
 10
278.412
 20
52.572
 30
0.0
 11
278.412
 21
57.2728
 31
0.0
  0
LINE
  8
0
 62
     0
 10
278.412
 20
57.2728
 30
0.0
 11
264.413
 21
57.2728
 31
0.0
  0
LINE
  8
0
 62
     0
 10
295.37
 20
57.2728
 30
0.0
 11
309.37
 21
57.2728
 31
0.0
  0
LINE
  8
0
 62
     0
 10
309.37
 20
57.2728
 30
0.0
 11
309.37
 21
43.2717
 31
0.0
  0
LINE
  8
0
 62
     0
 10
309.37
 20
43.2717
 30
0.0
 11
295.37
 21
43.2717
 31
0.0
  0
LINE
  8
0
 62
     0
 10
295.37
 20
43.2717
 30
0.0
 11
295.37
 21
57.2728
 31
0.0
  0
LINE
  8
0
 62
     0
 10
233.456
 20
57.2728
 30
0.0
 11
247.457
 21
57.2728
 31
0.0
  0
LINE
  8
0
 62
     0
 10
247.457
 20
57.2728
 30
0.0
 11
247.457
 21
43.2717
 31
0.0
  0
LINE
  8
0
 62
     0
 10
247.457
 20
43.2717
 30
0.0
 11
233.456
 21
43.2717
 31
0.0
  0
LINE
  8
0
 62
     0
 10
233.456
 20
43.2717
 30
0.0
 11
233.456
 21
57.2728
 31
0.0
  0
LINE
  8
0
 62
     0
 10
214.406
 20
57.2728
 30
0.0
 11
228.407
 21
57.2728
 31
0.0
  0
LINE
  8
0
 62
     0
 10
228.407
 20
57.2728
 30
0.0
 11
228.407
 21
43.2717
 31
0.0
  0
LINE
  8
0
 62
     0
 10
228.407
 20
43.2717
 30
0.0
 11
214.406
 21
43.2717
 31
0.0
  0
LINE
  8
0
 62
     0
 10
214.406
 20
43.2717
 30
0.0
 11
214.406
 21
57.2728
 31
0.0
  0
LINE
  8
0
 62
     0
 10
195.356
 20
57.2728
 30
0.0
 11
209.357
 21
57.2728
 31
0.0
  0
LINE
  8
0
 62
     0
 10
209.357
 20
57.2728
 30
0.0
 11
209.357
 21
43.2717
 31
0.0
  0
LINE
  8
0
 62
     0
 10
209.357
 20
43.2717
 30
0.0
 11
195.356
 21
43.2717
 31
0.0
  0
LINE
  8
0
 62
     0
 10
195.356
 20
43.2717
 30
0.0
 11
195.356
 21
57.2728
 31
0.0
  0
LINE
  8
0
 62
     0
 10
176.306
 20
57.2728
 30
0.0
 11
190.307
 21
57.2728
 31
0.0
  0
LINE
  8
0
 62
     0
 10
190.307
 20
57.2728
 30
0.0
 11
190.307
 21
43.2717
 31
0.0
  0
LINE
  8
0
 62
     0
 10
190.307
 20
43.2717
 30
0.0
 11
176.306
 21
43.2717
 31
0.0
  0
LINE
  8
0
 62
     0
 10
176.306
 20
43.2717
 30
0.0
 11
176.306
 21
57.2728
 31
0.0
  0
LINE
  8
0
 62
     0
 10
157.256
 20
57.2728
 30
0.0
 11
171.257
 21
57.2728
 31
0.0
  0
LINE
  8
0
 62
     0
 10
171.257
 20
57.2728
 30
0.0
 11
171.257
 21
43.2717
 31
0.0
  0
LINE
  8
0
 62
     0
 10
171.257
 20
43.2717
 30
0.0
 11
157.256
 21
43.2717
 31
0.0
  0
LINE
  8
0
 62
     0
 10
157.256
 20
43.2717
 30
0.0
 11
157.256
 21
57.2728
 31
0.0
  0
LINE
  8
0
 62
     0
 10
138.206
 20
57.2728
 30
0.0
 11
152.207
 21
57.2728
 31
0.0
  0
LINE
  8
0
 62
     0
 10
152.207
 20
57.2728
 30
0.0
 11
152.207
 21
43.2717
 31
0.0
  0
LINE
  8
0
 62
     0
 10
152.207
 20
43.2717
 30
0.0
 11
138.206
 21
43.2717
 31
0.0
  0
LINE
  8
0
 62
     0
 10
138.206
 20
43.2717
 30
0.0
 11
138.206
 21
57.2728
 31
0.0
  0
LINE
  8
0
 62
     0
 10
119.156
 20
57.2728
 30
0.0
 11
133.157
 21
57.2728
 31
0.0
  0
LINE
  8
0
 62
     0
 10
133.157
 20
57.2728
 30
0.0
 11
133.157
 21
43.2717
 31
0.0
  0
LINE
  8
0
 62
     0
 10
133.157
 20
43.2717
 30
0.0
 11
119.156
 21
43.2717
 31
0.0
  0
LINE
  8
0
 62
     0
 10
119.156
 20
43.2717
 30
0.0
 11
119.156
 21
57.2728
 31
0.0
  0
LINE
  8
0
 62
     0
 10
100.106
 20
57.2728
 30
0.0
 11
114.107
 21
57.2728
 31
0.0
  0
LINE
  8
0
 62
     0
 10
114.107
 20
57.2728
 30
0.0
 11
114.107
 21
43.2717
 31
0.0
  0
LINE
  8
0
 62
     0
 10
114.107
 20
43.2717
 30
0.0
 11
100.106
 21
43.2717
 31
0.0
  0
LINE
  8
0
 62
     0
 10
100.106
 20
43.2717
 30
0.0
 11
100.106
 21
57.2728
 31
0.0
  0
LINE
  8
0
 62
     0
 10
81.0563
 20
57.2728
 30
0.0
 11
95.057
 21
57.2728
 31
0.0
  0
LINE
  8
0
 62
     0
 10
95.057
 20
57.2728
 30
0.0
 11
95.057
 21
43.2717
 31
0.0
  0
LINE
  8
0
 62
     0
 10
95.057
 20
43.2717
 30
0.0
 11
81.0563
 21
43.2717
 31
0.0
  0
LINE
  8
0
 62
     0
 10
81.0563
 20
43.2717
 30
0.0
 11
81.0563
 21
57.2728
 31
0.0
  0
LINE
  8
0
 62
     0
 10
62.0063
 20
57.2728
 30
0.0
 11
76.007
 21
57.2728
 31
0.0
  0
LINE
  8
0
 62
     0
 10
76.007
 20
57.2728
 30
0.0
 11
76.007
 21
43.2717
 31
0.0
  0
LINE
  8
0
 62
     0
 10
76.007
 20
43.2717
 30
0.0
 11
62.0063
 21
43.2717
 31
0.0
  0
LINE
  8
0
 62
     0
 10
62.0063
 20
43.2717
 30
0.0
 11
62.0063
 21
57.2728
 31
0.0
  0
LINE
  8
0
 62
     0
 10
42.9563
 20
57.2728
 30
0.0
 11
56.957
 21
57.2728
 31
0.0
  0
LINE
  8
0
 62
     0
 10
56.957
 20
57.2728
 30
0.0
 11
56.957
 21
43.2717
 31
0.0
  0
LINE
  8
0
 62
     0
 10
56.957
 20
43.2717
 30
0.0
 11
42.9563
 21
43.2717
 31
0.0
  0
LINE
  8
0
 62
     0
 10
42.9563
 20
43.2717
 30
0.0
 11
42.9563
 21
57.2728
 31
0.0
  0
LINE
  8
0
 62
     0
 10
16.7624
 20
57.2728
 30
0.0
 11
30.7619
 21
57.2728
 31
0.0
  0
LINE
  8
0
 62
     0
 10
30.7619
 20
57.2728
 30
0.0
 11
30.7619
 21
43.2717
 31
0.0
  0
LINE
  8
0
 62
     0
 10
30.7619
 20
43.2717
 30
0.0
 11
16.7624
 21
43.2717
 31
0.0
  0
LINE
  8
0
 62
     0
 10
16.7624
 20
43.2717
 30
0.0
 11
16.7624
 21
57.2728
 31
0.0
  0
LINE
  8
0
 62
     0
 10
295.37
 20
76.3228
 30
0.0
 11
309.37
 21
76.3228
 31
0.0
  0
LINE
  8
0
 62
     0
 10
309.37
 20
76.3228
 30
0.0
 11
309.37
 21
62.3217
 31
0.0
  0
LINE
  8
0
 62
     0
 10
309.37
 20
62.3217
 30
0.0
 11
295.37
 21
62.3217
 31
0.0
  0
LINE
  8
0
 62
     0
 10
295.37
 20
62.3217
 30
0.0
 11
295.37
 21
76.3228
 31
0.0
  0
LINE
  8
0
 62
     0
 10
271.556
 20
76.3228
 30
0.0
 11
285.557
 21
76.3228
 31
0.0
  0
LINE
  8
0
 62
     0
 10
285.557
 20
76.3228
 30
0.0
 11
285.557
 21
62.3217
 31
0.0
  0
LINE
  8
0
 62
     0
 10
285.557
 20
62.3217
 30
0.0
 11
271.556
 21
62.3217
 31
0.0
  0
LINE
  8
0
 62
     0
 10
271.556
 20
62.3217
 30
0.0
 11
271.556
 21
76.3228
 31
0.0
  0
LINE
  8
0
 62
     0
 10
247.745
 20
76.3228
 30
0.0
 11
261.743
 21
76.3228
 31
0.0
  0
LINE
  8
0
 62
     0
 10
261.743
 20
76.3228
 30
0.0
 11
261.743
 21
62.3217
 31
0.0
  0
LINE
  8
0
 62
     0
 10
261.743
 20
62.3217
 30
0.0
 11
247.745
 21
62.3217
 31
0.0
  0
LINE
  8
0
 62
     0
 10
247.745
 20
62.3217
 30
0.0
 11
247.745
 21
76.3228
 31
0.0
  0
LINE
  8
0
 62
     0
 10
228.695
 20
76.3228
 30
0.0
 11
242.695
 21
76.3228
 31
0.0
  0
LINE
  8
0
 62
     0
 10
242.695
 20
76.3228
 30
0.0
 11
242.695
 21
62.3217
 31
0.0
  0
LINE
  8
0
 62
     0
 10
242.695
 20
62.3217
 30
0.0
 11
228.695
 21
62.3217
 31
0.0
  0
LINE
  8
0
 62
     0
 10
228.695
 20
62.3217
 30
0.0
 11
228.695
 21
76.3228
 31
0.0
  0
LINE
  8
0
 62
     0
 10
209.645
 20
76.3228
 30
0.0
 11
223.645
 21
76.3228
 31
0.0
  0
LINE
  8
0
 62
     0
 10
223.645
 20
76.3228
 30
0.0
 11
223.645
 21
62.3217
 31
0.0
  0
LINE
  8
0
 62
     0
 10
223.645
 20
62.3217
 30
0.0
 11
209.645
 21
62.3217
 31
0.0
  0
LINE
  8
0
 62
     0
 10
209.645
 20
62.3217
 30
0.0
 11
209.645
 21
76.3228
 31
0.0
  0
LINE
  8
0
 62
     0
 10
190.595
 20
76.3228
 30
0.0
 11
204.595
 21
76.3228
 31
0.0
  0
LINE
  8
0
 62
     0
 10
204.595
 20
76.3228
 30
0.0
 11
204.595
 21
62.3217
 31
0.0
  0
LINE
  8
0
 62
     0
 10
204.595
 20
62.3217
 30
0.0
 11
190.595
 21
62.3217
 31
0.0
  0
LINE
  8
0
 62
     0
 10
190.595
 20
62.3217
 30
0.0
 11
190.595
 21
76.3228
 31
0.0
  0
LINE
  8
0
 62
     0
 10
171.545
 20
76.3228
 30
0.0
 11
185.545
 21
76.3228
 31
0.0
  0
LINE
  8
0
 62
     0
 10
185.545
 20
76.3228
 30
0.0
 11
185.545
 21
62.3217
 31
0.0
  0
LINE
  8
0
 62
     0
 10
185.545
 20
62.3217
 30
0.0
 11
171.545
 21
62.3217
 31
0.0
  0
LINE
  8
0
 62
     0
 10
171.545
 20
62.3217
 30
0.0
 11
171.545
 21
76.3228
 31
0.0
  0
LINE
  8
0
 62
     0
 10
152.495
 20
76.3228
 30
0.0
 11
166.495
 21
76.3228
 31
0.0
  0
LINE
  8
0
 62
     0
 10
166.495
 20
76.3228
 30
0.0
 11
166.495
 21
62.3217
 31
0.0
  0
LINE
  8
0
 62
     0
 10
166.495
 20
62.3217
 30
0.0
 11
152.495
 21
62.3217
 31
0.0
  0
LINE
  8
0
 62
     0
 10
152.495
 20
62.3217
 30
0.0
 11
152.495
 21
76.3228
 31
0.0
  0
LINE
  8
0
 62
     0
 10
133.445
 20
76.3228
 30
0.0
 11
147.445
 21
76.3228
 31
0.0
  0
LINE
  8
0
 62
     0
 10
147.445
 20
76.3228
 30
0.0
 11
147.445
 21
62.3217
 31
0.0
  0
LINE
  8
0
 62
     0
 10
147.445
 20
62.3217
 30
0.0
 11
133.445
 21
62.3217
 31
0.0
  0
LINE
  8
0
 62
     0
 10
133.445
 20
62.3217
 30
0.0
 11
133.445
 21
76.3228
 31
0.0
  0
LINE
  8
0
 62
     0
 10
114.395
 20
76.3228
 30
0.0
 11
128.395
 21
76.3228
 31
0.0
  0
LINE
  8
0
 62
     0
 10
128.395
 20
76.3228
 30
0.0
 11
128.395
 21
62.3217
 31
0.0
  0
LINE
  8
0
 62
     0
 10
128.395
 20
62.3217
 30
0.0
 11
114.395
 21
62.3217
 31
0.0
  0
LINE
  8
0
 62
     0
 10
114.395
 20
62.3217
 30
0.0
 11
114.395
 21
76.3228
 31
0.0
  0
LINE
  8
0
 62
     0
 10
95.3452
 20
76.3228
 30
0.0
 11
109.345
 21
76.3228
 31
0.0
  0
LINE
  8
0
 62
     0
 10
109.345
 20
76.3228
 30
0.0
 11
109.345
 21
62.3217
 31
0.0
  0
LINE
  8
0
 62
     0
 10
109.345
 20
62.3217
 30
0.0
 11
95.3452
 21
62.3217
 31
0.0
  0
LINE
  8
0
 62
     0
 10
95.3452
 20
62.3217
 30
0.0
 11
95.3452
 21
76.3228
 31
0.0
  0
LINE
  8
0
 62
     0
 10
76.2953
 20
76.3228
 30
0.0
 11
90.2945
 21
76.3228
 31
0.0
  0
LINE
  8
0
 62
     0
 10
90.2945
 20
76.3228
 30
0.0
 11
90.2945
 21
62.3217
 31
0.0
  0
LINE
  8
0
 62
     0
 10
90.2945
 20
62.3217
 30
0.0
 11
76.2953
 21
62.3217
 31
0.0
  0
LINE
  8
0
 62
     0
 10
76.2953
 20
62.3217
 30
0.0
 11
76.2953
 21
76.3228
 31
0.0
  0
LINE
  8
0
 62
     0
 10
57.2453
 20
76.3228
 30
0.0
 11
71.2445
 21
76.3228
 31
0.0
  0
LINE
  8
0
 62
     0
 10
71.2445
 20
76.3228
 30
0.0
 11
71.2445
 21
62.3217
 31
0.0
  0
LINE
  8
0
 62
     0
 10
71.2445
 20
62.3217
 30
0.0
 11
57.2453
 21
62.3217
 31
0.0
  0
LINE
  8
0
 62
     0
 10
57.2453
 20
62.3217
 30
0.0
 11
57.2453
 21
76.3228
 31
0.0
  0
LINE
  8
0
 62
     0
 10
38.1952
 20
76.3228
 30
0.0
 11
52.1945
 21
76.3228
 31
0.0
  0
LINE
  8
0
 62
     0
 10
52.1945
 20
76.3228
 30
0.0
 11
52.1945
 21
62.3217
 31
0.0
  0
LINE
  8
0
 62
     0
 10
52.1945
 20
62.3217
 30
0.0
 11
38.1952
 21
62.3217
 31
0.0
  0
LINE
  8
0
 62
     0
 10
38.1952
 20
62.3217
 30
0.0
 11
38.1952
 21
76.3228
 31
0.0
  0
LINE
  8
0
 62
     0
 10
14.3812
 20
76.3228
 30
0.0
 11
28.3821
 21
76.3228
 31
0.0
  0
LINE
  8
0
 62
     0
 10
28.3821
 20
76.3228
 30
0.0
 11
28.3821
 21
62.3217
 31
0.0
  0
LINE
  8
0
 62
     0
 10
28.3821
 20
62.3217
 30
0.0
 11
14.3812
 21
62.3217
 31
0.0
  0
LINE
  8
0
 62
     0
 10
14.3812
 20
62.3217
 30
0.0
 11
14.3812
 21
76.3228
 31
0.0
  0
LINE
  8
0
 62
     0
 10
266.795
 20
95.3728
 30
0.0
 11
266.795
 21
90.672
 31
0.0
  0
LINE
  8
0
 62
     0
 10
266.795
 20
90.672
 30
0.0
 11
265.269
 21
90.672
 31
0.0
  0
LINE
  8
0
 62
     0
 10
265.269
 20
90.672
 30
0.0
 11
265.269
 21
93.9024
 31
0.0
  0
LINE
  8
0
 62
     0
 10
265.269
 20
93.9024
 30
0.0
 11
258.52
 21
93.9024
 31
0.0
  0
LINE
  8
0
 62
     0
 10
258.52
 20
93.9024
 30
0.0
 11
258.52
 21
90.672
 31
0.0
  0
LINE
  8
0
 62
     0
 10
258.52
 20
90.672
 30
0.0
 11
257.695
 21
90.672
 31
0.0
  0
LINE
  8
0
 62
     0
 10
257.695
 20
90.672
 30
0.0
 11
257.695
 21
87.872
 31
0.0
  0
LINE
  8
0
 62
     0
 10
257.695
 20
87.872
 30
0.0
 11
258.52
 21
87.872
 31
0.0
  0
LINE
  8
0
 62
     0
 10
258.52
 20
87.872
 30
0.0
 11
258.52
 21
81.6021
 31
0.0
  0
LINE
  8
0
 62
     0
 10
258.52
 20
81.6021
 30
0.0
 11
260.244
 21
81.6021
 31
0.0
  0
LINE
  8
0
 62
     0
 10
260.244
 20
81.6021
 30
0.0
 11
260.244
 21
80.4016
 31
0.0
  0
LINE
  8
0
 62
     0
 10
260.244
 20
80.4016
 30
0.0
 11
263.544
 21
80.4016
 31
0.0
  0
LINE
  8
0
 62
     0
 10
263.544
 20
80.4016
 30
0.0
 11
263.544
 21
81.6021
 31
0.0
  0
LINE
  8
0
 62
     0
 10
263.544
 20
81.6021
 30
0.0
 11
265.269
 21
81.6021
 31
0.0
  0
LINE
  8
0
 62
     0
 10
265.269
 20
81.6021
 30
0.0
 11
265.269
 21
86.0721
 31
0.0
  0
LINE
  8
0
 62
     0
 10
265.269
 20
86.0721
 30
0.0
 11
266.795
 21
86.0721
 31
0.0
  0
LINE
  8
0
 62
     0
 10
266.795
 20
86.0721
 30
0.0
 11
266.795
 21
81.3717
 31
0.0
  0
LINE
  8
0
 62
     0
 10
266.795
 20
81.3717
 30
0.0
 11
280.795
 21
81.3717
 31
0.0
  0
LINE
  8
0
 62
     0
 10
280.795
 20
81.3717
 30
0.0
 11
280.795
 21
86.0721
 31
0.0
  0
LINE
  8
0
 62
     0
 10
280.795
 20
86.0721
 30
0.0
 11
282.32
 21
86.0721
 31
0.0
  0
LINE
  8
0
 62
     0
 10
282.32
 20
86.0721
 30
0.0
 11
282.32
 21
81.6021
 31
0.0
  0
LINE
  8
0
 62
     0
 10
282.32
 20
81.6021
 30
0.0
 11
284.044
 21
81.6021
 31
0.0
  0
LINE
  8
0
 62
     0
 10
284.044
 20
81.6021
 30
0.0
 11
284.044
 21
80.4016
 31
0.0
  0
LINE
  8
0
 62
     0
 10
284.044
 20
80.4016
 30
0.0
 11
287.345
 21
80.4016
 31
0.0
  0
LINE
  8
0
 62
     0
 10
287.345
 20
80.4016
 30
0.0
 11
287.345
 21
81.6021
 31
0.0
  0
LINE
  8
0
 62
     0
 10
287.345
 20
81.6021
 30
0.0
 11
289.07
 21
81.6021
 31
0.0
  0
LINE
  8
0
 62
     0
 10
289.07
 20
81.6021
 30
0.0
 11
289.07
 21
87.872
 31
0.0
  0
LINE
  8
0
 62
     0
 10
289.07
 20
87.872
 30
0.0
 11
289.895
 21
87.872
 31
0.0
  0
LINE
  8
0
 62
     0
 10
289.895
 20
87.872
 30
0.0
 11
289.895
 21
90.672
 31
0.0
  0
LINE
  8
0
 62
     0
 10
289.895
 20
90.672
 30
0.0
 11
289.07
 21
90.672
 31
0.0
  0
LINE
  8
0
 62
     0
 10
289.07
 20
90.672
 30
0.0
 11
289.07
 21
93.9024
 31
0.0
  0
LINE
  8
0
 62
     0
 10
289.07
 20
93.9024
 30
0.0
 11
282.32
 21
93.9024
 31
0.0
  0
LINE
  8
0
 62
     0
 10
282.32
 20
93.9024
 30
0.0
 11
282.32
 21
90.672
 31
0.0
  0
LINE
  8
0
 62
     0
 10
282.32
 20
90.672
 30
0.0
 11
280.795
 21
90.672
 31
0.0
  0
LINE
  8
0
 62
     0
 10
280.795
 20
90.672
 30
0.0
 11
280.795
 21
95.3728
 31
0.0
  0
LINE
  8
0
 62
     0
 10
280.795
 20
95.3728
 30
0.0
 11
266.795
 21
95.3728
 31
0.0
  0
LINE
  8
0
 62
     0
 10
295.37
 20
95.3728
 30
0.0
 11
309.37
 21
95.3728
 31
0.0
  0
LINE
  8
0
 62
     0
 10
309.37
 20
95.3728
 30
0.0
 11
309.37
 21
81.3717
 31
0.0
  0
LINE
  8
0
 62
     0
 10
309.37
 20
81.3717
 30
0.0
 11
295.37
 21
81.3717
 31
0.0
  0
LINE
  8
0
 62
     0
 10
295.37
 20
81.3717
 30
0.0
 11
295.37
 21
95.3728
 31
0.0
  0
LINE
  8
0
 62
     0
 10
238.22
 20
95.3728
 30
0.0
 11
252.22
 21
95.3728
 31
0.0
  0
LINE
  8
0
 62
     0
 10
252.22
 20
95.3728
 30
0.0
 11
252.22
 21
81.3717
 31
0.0
  0
LINE
  8
0
 62
     0
 10
252.22
 20
81.3717
 30
0.0
 11
238.22
 21
81.3717
 31
0.0
  0
LINE
  8
0
 62
     0
 10
238.22
 20
81.3717
 30
0.0
 11
238.22
 21
95.3728
 31
0.0
  0
LINE
  8
0
 62
     0
 10
219.17
 20
95.3728
 30
0.0
 11
233.17
 21
95.3728
 31
0.0
  0
LINE
  8
0
 62
     0
 10
233.17
 20
95.3728
 30
0.0
 11
233.17
 21
81.3717
 31
0.0
  0
LINE
  8
0
 62
     0
 10
233.17
 20
81.3717
 30
0.0
 11
219.17
 21
81.3717
 31
0.0
  0
LINE
  8
0
 62
     0
 10
219.17
 20
81.3717
 30
0.0
 11
219.17
 21
95.3728
 31
0.0
  0
LINE
  8
0
 62
     0
 10
200.12
 20
95.3728
 30
0.0
 11
214.12
 21
95.3728
 31
0.0
  0
LINE
  8
0
 62
     0
 10
214.12
 20
95.3728
 30
0.0
 11
214.12
 21
81.3717
 31
0.0
  0
LINE
  8
0
 62
     0
 10
214.12
 20
81.3717
 30
0.0
 11
200.12
 21
81.3717
 31
0.0
  0
LINE
  8
0
 62
     0
 10
200.12
 20
81.3717
 30
0.0
 11
200.12
 21
95.3728
 31
0.0
  0
LINE
  8
0
 62
     0
 10
181.07
 20
95.3728
 30
0.0
 11
195.07
 21
95.3728
 31
0.0
  0
LINE
  8
0
 62
     0
 10
195.07
 20
95.3728
 30
0.0
 11
195.07
 21
81.3717
 31
0.0
  0
LINE
  8
0
 62
     0
 10
195.07
 20
81.3717
 30
0.0
 11
181.07
 21
81.3717
 31
0.0
  0
LINE
  8
0
 62
     0
 10
181.07
 20
81.3717
 30
0.0
 11
181.07
 21
95.3728
 31
0.0
  0
LINE
  8
0
 62
     0
 10
162.02
 20
95.3728
 30
0.0
 11
176.02
 21
95.3728
 31
0.0
  0
LINE
  8
0
 62
     0
 10
176.02
 20
95.3728
 30
0.0
 11
176.02
 21
81.3717
 31
0.0
  0
LINE
  8
0
 62
     0
 10
176.02
 20
81.3717
 30
0.0
 11
162.02
 21
81.3717
 31
0.0
  0
LINE
  8
0
 62
     0
 10
162.02
 20
81.3717
 30
0.0
 11
162.02
 21
95.3728
 31
0.0
  0
LINE
  8
0
 62
     0
 10
142.97
 20
95.3728
 30
0.0
 11
156.97
 21
95.3728
 31
0.0
  0
LINE
  8
0
 62
     0
 10
156.97
 20
95.3728
 30
0.0
 11
156.97
 21
81.3717
 31
0.0
  0
LINE
  8
0
 62
     0
 10
156.97
 20
81.3717
 30
0.0
 11
142.97
 21
81.3717
 31
0.0
  0
LINE
  8
0
 62
     0
 10
142.97
 20
81.3717
 30
0.0
 11
142.97
 21
95.3728
 31
0.0
  0
LINE
  8
0
 62
     0
 10
123.919
 20
95.3728
 30
0.0
 11
137.92
 21
95.3728
 31
0.0
  0
LINE
  8
0
 62
     0
 10
137.92
 20
95.3728
 30
0.0
 11
137.92
 21
81.3717
 31
0.0
  0
LINE
  8
0
 62
     0
 10
137.92
 20
81.3717
 30
0.0
 11
123.919
 21
81.3717
 31
0.0
  0
LINE
  8
0
 62
     0
 10
123.919
 20
81.3717
 30
0.0
 11
123.919
 21
95.3728
 31
0.0
  0
LINE
  8
0
 62
     0
 10
104.869
 20
95.3728
 30
0.0
 11
118.868
 21
95.3728
 31
0.0
  0
LINE
  8
0
 62
     0
 10
118.868
 20
95.3728
 30
0.0
 11
118.868
 21
81.3717
 31
0.0
  0
LINE
  8
0
 62
     0
 10
118.868
 20
81.3717
 30
0.0
 11
104.869
 21
81.3717
 31
0.0
  0
LINE
  8
0
 62
     0
 10
104.869
 20
81.3717
 30
0.0
 11
104.869
 21
95.3728
 31
0.0
  0
LINE
  8
0
 62
     0
 10
85.8203
 20
95.3728
 30
0.0
 11
99.8195
 21
95.3728
 31
0.0
  0
LINE
  8
0
 62
     0
 10
99.8195
 20
95.3728
 30
0.0
 11
99.8195
 21
81.3717
 31
0.0
  0
LINE
  8
0
 62
     0
 10
99.8195
 20
81.3717
 30
0.0
 11
85.8203
 21
81.3717
 31
0.0
  0
LINE
  8
0
 62
     0
 10
85.8203
 20
81.3717
 30
0.0
 11
85.8203
 21
95.3728
 31
0.0
  0
LINE
  8
0
 62
     0
 10
66.7703
 20
95.3728
 30
0.0
 11
80.7695
 21
95.3728
 31
0.0
  0
LINE
  8
0
 62
     0
 10
80.7695
 20
95.3728
 30
0.0
 11
80.7695
 21
81.3717
 31
0.0
  0
LINE
  8
0
 62
     0
 10
80.7695
 20
81.3717
 30
0.0
 11
66.7703
 21
81.3717
 31
0.0
  0
LINE
  8
0
 62
     0
 10
66.7703
 20
81.3717
 30
0.0
 11
66.7703
 21
95.3728
 31
0.0
  0
LINE
  8
0
 62
     0
 10
47.7203
 20
95.3728
 30
0.0
 11
61.7195
 21
95.3728
 31
0.0
  0
LINE
  8
0
 62
     0
 10
61.7195
 20
95.3728
 30
0.0
 11
61.7195
 21
81.3717
 31
0.0
  0
LINE
  8
0
 62
     0
 10
61.7195
 20
81.3717
 30
0.0
 11
47.7203
 21
81.3717
 31
0.0
  0
LINE
  8
0
 62
     0
 10
47.7203
 20
81.3717
 30
0.0
 11
47.7203
 21
95.3728
 31
0.0
  0
LINE
  8
0
 62
     0
 10
28.6701
 20
95.3728
 30
0.0
 11
42.6695
 21
95.3728
 31
0.0
  0
LINE
  8
0
 62
     0
 10
42.6695
 20
95.3728
 30
0.0
 11
42.6695
 21
81.3717
 31
0.0
  0
LINE
  8
0
 62
     0
 10
42.6695
 20
81.3717
 30
0.0
 11
28.6701
 21
81.3717
 31
0.0
  0
LINE
  8
0
 62
     0
 10
28.6701
 20
81.3717
 30
0.0
 11
28.6701
 21
95.3728
 31
0.0
  0
LINE
  8
0
 62
     0
 10
10.0941
 20
95.3728
 30
0.0
 11
23.6196
 21
95.3728
 31
0.0
  0
LINE
  8
0
 62
     0
 10
23.6196
 20
95.3728
 30
0.0
 11
23.6196
 21
81.3717
 31
0.0
  0
LINE
  8
0
 62
     0
 10
23.6196
 20
81.3717
 30
0.0
 11
10.0941
 21
81.3717
 31
0.0
  0
LINE
  8
0
 62
     0
 10
10.0941
 20
81.3717
 30
0.0
 11
10.0941
 21
95.3728
 31
0.0
  0
ENDSEC
  0
EOF
