  0
SECTION
  2
HEADER
  9
$ACADVER
  1
AC1009
  9
$EXTMIN
 10
0.0
 20
0.0
 30
0.0
  9
$EXTMAX
 10
1000.0
 20
1000.0
 30
0.0
  9
$FILLMODE
 70
 0
  9
$SPLFRAME
 70
 1
  0
ENDSEC
  0
SECTION
  2
TABLES
  0
TABLE
  2
LAYER
 70
1
  0
LAYER
  2
0
 70
     0
 62
     7
  6
CONTINUOUS
  0
ENDTAB
  0
ENDSEC
  0
SECTION
  2
ENTITIES
  0
LINE
  8
0
 62
     0
 10
25.0941
 20
0.427193
 30
0.0
 11
5.0946
 21
0.427193
 31
0.0
  0
LINE
  8
0
 62
     0
 10
5.0946
 20
0.427193
 30
0.0
 11
0.0950846
 21
5.42671
 31
0.0
  0
LINE
  8
0
 62
     0
 10
0.0950846
 20
5.42671
 30
0.0
 11
0.0950846
 21
29.4776
 31
0.0
  0
LINE
  8
0
 62
     0
 10
0.0950846
 20
29.4776
 30
0.0
 11
5.0946
 21
34.4771
 31
0.0
  0
LINE
  8
0
 62
     0
 10
5.0946
 20
34.4771
 30
0.0
 11
25.0941
 21
34.4771
 31
0.0
  0
LINE
  8
0
 62
     0
 10
25.0941
 20
34.4771
 30
0.0
 11
30.095
 21
29.4776
 31
0.0
  0
LINE
  8
0
 62
     0
 10
30.095
 20
29.4776
 30
0.0
 11
274.895
 21
29.4776
 31
0.0
  0
LINE
  8
0
 62
     0
 10
274.895
 20
29.4776
 30
0.0
 11
279.896
 21
34.4771
 31
0.0
  0
LINE
  8
0
 62
     0
 10
279.896
 20
34.4771
 30
0.0
 11
299.896
 21
34.4771
 31
0.0
  0
LINE
  8
0
 62
     0
 10
299.896
 20
34.4771
 30
0.0
 11
304.895
 21
29.4776
 31
0.0
  0
LINE
  8
0
 62
     0
 10
304.895
 20
29.4776
 30
0.0
 11
304.895
 21
5.42671
 31
0.0
  0
LINE
  8
0
 62
     0
 10
304.895
 20
5.42671
 30
0.0
 11
299.896
 21
0.427193
 31
0.0
  0
LINE
  8
0
 62
     0
 10
299.896
 20
0.427193
 30
0.0
 11
279.896
 21
0.427193
 31
0.0
  0
LINE
  8
0
 62
     0
 10
279.896
 20
0.427193
 30
0.0
 11
274.895
 21
5.42671
 31
0.0
  0
LINE
  8
0
 62
     0
 10
274.895
 20
5.42671
 30
0.0
 11
30.095
 21
5.42671
 31
0.0
  0
LINE
  8
0
 62
     0
 10
30.095
 20
5.42671
 30
0.0
 11
25.0941
 21
0.427193
 31
0.0
  0
LINE
  8
0
 62
     0
 10
288.37
 20
24.4533
 30
0.0
 11
302.369
 21
24.4533
 31
0.0
  0
LINE
  8
0
 62
     0
 10
302.369
 20
24.4533
 30
0.0
 11
302.369
 21
10.4524
 31
0.0
  0
LINE
  8
0
 62
     0
 10
302.369
 20
10.4524
 30
0.0
 11
288.37
 21
10.4524
 31
0.0
  0
LINE
  8
0
 62
     0
 10
288.37
 20
10.4524
 30
0.0
 11
288.37
 21
24.4533
 31
0.0
  0
LINE
  8
0
 62
     0
 10
78.8197
 20
24.4533
 30
0.0
 11
92.819
 21
24.4533
 31
0.0
  0
LINE
  8
0
 62
     0
 10
92.819
 20
24.4533
 30
0.0
 11
92.819
 21
10.4524
 31
0.0
  0
LINE
  8
0
 62
     0
 10
92.819
 20
10.4524
 30
0.0
 11
78.8197
 21
10.4524
 31
0.0
  0
LINE
  8
0
 62
     0
 10
78.8197
 20
10.4524
 30
0.0
 11
78.8197
 21
24.4533
 31
0.0
  0
LINE
  8
0
 62
     0
 10
59.7697
 20
24.4533
 30
0.0
 11
73.769
 21
24.4533
 31
0.0
  0
LINE
  8
0
 62
     0
 10
73.769
 20
24.4533
 30
0.0
 11
73.769
 21
10.4524
 31
0.0
  0
LINE
  8
0
 62
     0
 10
73.769
 20
10.4524
 30
0.0
 11
59.7697
 21
10.4524
 31
0.0
  0
LINE
  8
0
 62
     0
 10
59.7697
 20
10.4524
 30
0.0
 11
59.7697
 21
24.4533
 31
0.0
  0
LINE
  8
0
 62
     0
 10
40.7197
 20
24.4533
 30
0.0
 11
54.719
 21
24.4533
 31
0.0
  0
LINE
  8
0
 62
     0
 10
54.719
 20
24.4533
 30
0.0
 11
54.719
 21
10.4524
 31
0.0
  0
LINE
  8
0
 62
     0
 10
54.719
 20
10.4524
 30
0.0
 11
40.7197
 21
10.4524
 31
0.0
  0
LINE
  8
0
 62
     0
 10
40.7197
 20
10.4524
 30
0.0
 11
40.7197
 21
24.4533
 31
0.0
  0
LINE
  8
0
 62
     0
 10
21.6697
 20
24.4533
 30
0.0
 11
35.669
 21
24.4533
 31
0.0
  0
LINE
  8
0
 62
     0
 10
35.669
 20
24.4533
 30
0.0
 11
35.669
 21
10.4524
 31
0.0
  0
LINE
  8
0
 62
     0
 10
35.669
 20
10.4524
 30
0.0
 11
21.6697
 21
10.4524
 31
0.0
  0
LINE
  8
0
 62
     0
 10
21.6697
 20
10.4524
 30
0.0
 11
21.6697
 21
24.4533
 31
0.0
  0
LINE
  8
0
 62
     0
 10
2.61965
 20
24.4533
 30
0.0
 11
16.6192
 21
24.4533
 31
0.0
  0
LINE
  8
0
 62
     0
 10
16.6192
 20
24.4533
 30
0.0
 11
16.6192
 21
10.4524
 31
0.0
  0
LINE
  8
0
 62
     0
 10
16.6192
 20
10.4524
 30
0.0
 11
2.61965
 21
10.4524
 31
0.0
  0
LINE
  8
0
 62
     0
 10
2.61965
 20
10.4524
 30
0.0
 11
2.61965
 21
24.4533
 31
0.0
  0
ENDSEC
  0
EOF
